<svg width="266" height="104" xmlns="http://www.w3.org/2000/svg"><g fill="none"><path d="M182.465 9.621l-.06-.57-.922.08.058.569.924-.079zm6.205 14.928l.02.314.648-.059c-.02-.196.058-.51.196-.903l-.06-.57c-.274.02-.55.432-.804 1.218zm-24.213 18.797c-.039-.53-1.688-2.593-4.948-6.227-.059-.667 1.06-1.67 3.358-2.985l6.558-5.716c1.473-1.866 2.337-4.89 2.593-9.094l-.08-.962c-.254-2.907-2.355-5.245-6.341-7.032-2.357-1.591-6.599-2.475-12.725-2.632-5.067.432-11.684 2.239-19.834 5.44-2.238 1.611-4.79 3.222-7.658 4.832l.04.492c.176-.02.45-.118.765-.334.334-.04.53.118.55.432l.49-.256.237-.02.02.217c.019.255-1.749 1.65-5.323 4.144l.276.51-.236.02-.59-.215c.02.176-.235.294-.726.334l.02.216.57.707c-.177.02-.452-.06-.825-.197-.825.079-1.63.51-2.435 1.336l.334-1.454c1.197-5.165 2.022-9.742 2.454-13.71l-.059-.255c-.824-.53-1.63-1.277-2.376-2.22.02-.608.02-.962 0-1.04l-.059-.217-.236.06c-2.591 3.888-7.58 10.527-14.983 19.916-5.635 6.678-8.542 10.39-8.718 11.137-2.298 2.377-3.397 3.81-3.28 4.302-.608.392-.864.785-.766 1.217-.176.04-.294-.019-.333-.196-.982 1.59-2.435 2.612-4.38 3.064l-2.042.472c-.274.058-.412.255-.392.589l.058.255.766-.177.06.216-1.729.668-3.063.707-1.61.098c-.236.236 1.276-.019.687.118l-2.003.472c-1.218.275-1.885.177-2.003-.314l-.236.058c.04.216.06.374.02.51l-.118-.49-1.61.373c-.118-.746-2.297-3.457-6.52-8.131-.078-.904 1.414-2.22 4.458-3.929l8.601-7.562c1.925-2.475 3.063-6.443 3.437-11.903l-.118-1.277c-.334-3.85-3.123-6.953-8.366-9.349-3.102-2.102-8.68-3.221-16.73-3.398-6.677.57-15.396 2.946-26.117 7.09-2.946 2.141-6.304 4.263-10.074 6.364l.059.668c.255-.02.589-.157 1.001-.392.432-.04.668.156.707.55l.668-.374.334-.02.02.315c.02.314-2.318 2.14-7.05 5.48l.373.59-.334.019-.727-.256c.02.197-.314.334-1.001.393l.039.354.786.864c-.255.02-.609-.059-1.06-.216-1.532.138-3.025 1.237-4.497 3.32l.372.589c1.277-1.179 2.023-1.768 2.24-1.787l.078.962c-.216.02-.55.157-1.002.393l.805 1.218a26.589 26.589 0 0 1 5.126-4.302c.923.236 1.413.53 1.433.844l.707-.058c5.066-3.752 10.074-6.463 15.042-8.132l.059.668c-.923 1.374-1.551 2.082-1.885 2.12.04.473.196.885.49 1.239.08.844-2.18 6.54-6.755 17.068C16.808 65.011 8.09 83.12 1 94.827c.02.236.157.55.412.943 1.748-.412 2.848-.844 3.319-1.257l.373-.04.059.669.648-.06.668-.373c.02.197.235.295.687.255l.059.668c.059.649-.314 1.63-1.1 2.986-.707.805-1.473 2.494-2.278 5.068l.02.314.648-.06c2.828-3.162 4.968-6.265 6.44-9.29 8.248-2.416 14.532-4.792 18.891-7.13 4.38-.373 7.718-1.532 9.996-3.437l-.04-.353-1.649.49-.373.04-.04-.354c3.221-.49 5.44-1.198 6.677-2.18 6.264-4.832 10.997-8.25 14.198-10.273 6.578-4.831 10.859-9.546 12.803-14.122.353-.078.706-.157 1.1-.256.922-.038 1.433-.058 1.57-.098-.039-.176.04-.274.216-.314 1.473-.157.766.098 1.709-.118l2.474-.57c-.157.04-.216.119-.177.276l.373-.236a.58.58 0 0 1-.196-.04l.412-.097-.196.118c.275.039.57.019.904-.06l.176.727-11.252 17.894-2.494 3.123-1.217 4.085.236-.059 1.217-.51-.393 1.59.118.472.334.412c-.157.04-.216.138-.177.315l.06.255.51-.118c.746-.648 1.06-1.237.942-1.767.805.137 1.335.196 1.61.118l.06.255c-.491.118-.747.51-.786 1.178l.059.256.275-.06c4.084-4.458 14.1-19.72 22.13-30.07-.255-1.12 3.928-2.672 12.568-4.676l.275-.059c.314 1.356-.354 4.636-2.003 9.841-1.06 3.143-1.57 4.871-1.492 5.146-1.375 4.184-2.023 6.443-1.945 6.796l-3.063 10.037C93.372 86.263 91.86 91.665 90.8 97.36c.176-.04.451-.02.844.079l.432-.374c.04.177.157.236.334.196l-.177-.726 1.335-.04c.393-.097.727-.589 1.002-1.492-.06-1.355.216-2.082.824-2.24.825-3.22 1.336-4.831 1.513-4.89.765-3.202 1.335-5.028 1.708-5.48 1.159-4.164 2.003-6.305 2.553-6.443l.117.511-.844 2.18c-1.473 6.541-2.965 11.707-4.477 15.498l.432 1.885.275-.059c3.652-7.856 8.915-23.412 15.768-46.669.197-2.042 1.178-3.633 2.926-4.753l-.393-.412-.058-.216c.785-.177 1.335-.491 1.649-.923-.04-.178-.727-.433-2.062-.786l3.417-14.653c.746-.668 1.178-1.021 1.316-1.021l.059.746c-.177.02-.452.118-.766.334l.648.923a20.996 20.996 0 0 1 3.849-3.3c.706.197 1.06.432 1.1.668l.51-.04c3.888-2.847 7.698-4.89 11.448-6.127l.04.49c-.688 1.041-1.16 1.572-1.415 1.591.04.354.138.668.315.943.059.648-1.63 4.97-5.086 12.983-7.894 18.562-14.512 32.292-19.892 41.21.02.176.137.412.353.726 1.316-.314 2.16-.648 2.494-.963l.236-.02.04.492.549-.04.49-.255c.02.138.197.197.531.177l.039.53c.04.472-.235 1.218-.844 2.24-.57.608-1.159 1.885-1.787 3.83l.02.255.51-.04c2.14-2.396 3.77-4.753 4.89-7.07 6.263-1.847 11.035-3.634 14.335-5.402 3.357-.295 5.89-1.159 7.619-2.612l-.02-.255-1.276.373-.275.02-.02-.256c2.435-.353 4.144-.904 5.066-1.63 4.753-3.654 8.346-6.266 10.781-7.798 7.58-5.52 11.114-10.823 10.682-15.91zm-1.295.334l.176 1.984c-.236.49-.49.746-.726.766l-.295-3.379c.55.197.825.393.845.629zM14.47 27.692l-.334.019-.059-.609 1.355-.118.02.314c-.216.02-.55.138-.982.394zM7.853 93.904c-.785-.353-1.492-.491-2.1-.432l-.08-.963c-.039-.373.177-.628.648-.727.432-.039.688.276.727.904 1.14-1.394 1.768-2.101 1.885-2.121l.727.294c-.236 1.965-.844 2.966-1.807 3.045zm70.713-73.99c-.334.039-1.002-1.002-1.964-3.065l-.059-.609c.629-.058 1.277.963 1.964 3.064l.059.61zm-.943-7.327l-.275.648-9.602-4.007c6.401.217 9.7 1.336 9.877 3.36zm-40.55 34.825l-1.355.118-.06-.61 1.356-.117.059.609zm-1.1-20.919l.334-.02.078.963c-.314.02-.726.491-1.237 1.395l-.059-.668c.61-.727.924-1.277.884-1.67zm-2.847 6.718l.118 1.276-.334.02-.118-1.277.334-.02zm-1.493 2.396l.648-.059c-.058 1.06-.353 1.63-.883 1.67l-.334.02c.412-.708.609-1.258.57-1.63zm-1.119 3.34l.373-.04.02.314-.609 1.022-.648.058-.02-.314c.648-.059.943-.393.884-1.04zm-1.1 3.005l-.196 1.61-.334.02-.137-1.591.667-.04zM18.398 73.28c-.432 2.2-.903 3.32-1.394 3.359l-.02-.314c-.118-1.08.354-2.102 1.414-3.045zm-2.022 4.38l.02.314c.038.433-.158.688-.59.707l-.02-.314c-.039-.373.158-.609.59-.707zm-.59 9.094l1.022-.098.039.354c-.255.02-.59.157-1.002.393l-.648.058c-.04-.333.177-.589.59-.707zm29.063-8.976c-5.734 2.828-9.112 4.753-10.113 5.755-6.205 2.16-9.288 3.496-9.23 4.026-5.517 2.181-9.15 3.792-10.898 4.793-.412.04-1.001-.118-1.787-.471-.098-1.12.413-2.023 1.492-2.75a5.794 5.794 0 0 1 2.77.432c1.02-.53 2.808-1.12 5.34-1.748l-.058-.668-2.042.177c.255-.354 2.218-1.277 5.91-2.77l1.021-.098.02.315c-1.748.156-2.71.668-2.926 1.59.04.413.275.59.707.55 1.316-.825 1.964-1.316 1.944-1.453 2.494-.471 9.386-4.086 20.678-10.823l.059.61c.02.294-.943 1.119-2.887 2.533zm-17.32 5.696c1.65-.138 3.064-.805 4.242-1.964.47-.04.726.137.746.55-.805.079-2.356.746-4.614 2.043l-.334.02-.04-.649zm27.943-21.469l-8.66 6.856c-6.44 4.223-9.896 6.344-10.387 6.383-10.25 5.638-16.632 8.564-19.107 8.78l-.373.04c.314-1.16 4.87-10.49 13.707-28.05 3.888-.333 10.015-2.14 18.36-5.44l2.042-.177c4.222-.373 7.384.452 9.466 2.417l.117 1.276c-1.571 4.518-3.299 7.15-5.165 7.915zM38.546 52.48l1.394-.118.02.314-1.395.118-.02-.314zm19.577-3.32l1.022-.098c.942.452 1.433.844 1.473 1.198l.019.314c-.903.079-1.748-.392-2.514-1.414zm2.77-15.772c-.904 1.08-3.378 2.926-7.424 5.519-1.335.118-6.303 2.043-14.904 5.814a2.72 2.72 0 0 0-1.374-.236l-.06-.609c-.098-1.237.452-2.789 1.67-4.674.668-3.536 1.394-5.56 2.2-6.05l7.167-16.126c-.079-1.002 1.453-1.768 4.595-2.298l1.02-.099.08.924c3.082-.472 5.007-.746 5.753-.806 5.695-.49 8.66.668 8.896 3.438l.648-.06-.138-1.63.707-.058c1.669.923 2.573 2.043 2.69 3.358.079.904-.412 2.023-1.453 3.36-.432.038-.687-.276-.727-.904l-.706.059-.157 1.964c-2.887 4.321-4.988 6.54-6.284 6.658-1.179 1.63-1.905 2.436-2.2 2.456zm4.398 11.294c-.589-.393-1.06-.57-1.414-.55l-.079-.963.649-.058 1.433.844c.059.452-.137.687-.59.727zm4.556 5.4c.628.256 1.002.531 1.08.787l-.314.078.02.02c-.06 0-.138.02-.197.04l-.471.372-.118-1.296zm.432 2.712l-.059-.256.825-.196.058.255-.824.197zm1.983 2.22c.844-.138 1.257-.197 2.828-.55l.059.255-2.985.687a3.75 3.75 0 0 0 .098-.393zm2.907 1.237c-1.257.118-.982-.04-2.985.412l-.06-.255 2.495-.806 1.198-.274.117.47c-.53.119-.137.119-.765.453zm2.65-.629c-.294.079-.53-.059-.667-.393l.766-.177c.333-.078.55.06.628.393l-.726.177zm7.187-7.739l-.058-.255 1.237-.294.117.47-1.296.08zm7.679 47.101c.078-.354.098-.609.058-.786l.276-.058c.333-.079.53.04.608.353l.059.255-1.001.236zm5.38-45.078l-.55-.098c-.884.354-1.63.609-2.238.747l-.51.117c-.295.079-.531-.04-.649-.353l3.594-.825 1.178-.55.393.452c-.57.118-.982.294-1.218.51zm2.769-.884l-.059-.255c.177-.04.412-.176.668-.432l2.552-.59.06.256c-1.355.334-2.436.668-3.221 1.021zm.393-5.166c-.177.04-.413.197-.708.433-.038-.177-.392-.177-1.06-.02-.117-.491 1.768-1.178 5.676-2.082l.549-.118.118.472c-2.75.805-4.28 1.257-4.575 1.315zm6.873-7.424c-.275 3.123-1.375 4.891-3.32 5.343l-.058-.256-1.728.668-.766.177a1.928 1.928 0 0 1-1.06-.02l-.157-.687c-.06-.255 2.435-3.713 7.501-10.352l.589.1c.216.902-.118 2.572-1.001 5.027zm12.155-10.41l-.236.02-.04-.491 1.022-.099.02.255c-.177.04-.432.138-.766.315zm-5.008 50.303c-.589-.276-1.12-.393-1.57-.354l-.06-.747c-.02-.255.138-.432.472-.53.334-.039.53.196.57.708.843-1.08 1.315-1.63 1.413-1.63l.53.215c-.196 1.493-.648 2.278-1.355 2.338zm53.688-56.176c-.256.02-.747-.766-1.512-2.357l-.04-.491c.491-.04 1.002.727 1.512 2.298l.04.55zm-.707-5.618l-.236.51-7.265-3.043c4.85.157 7.363 1.002 7.501 2.533zm-30.81 26.458l-1.022.098-.039-.491 1.021-.078.04.471zm-.845-15.89l.275-.02.059.746c-.255.02-.57.374-.943 1.061l-.039-.49c.452-.57.667-1.003.648-1.297zm-2.14 5.107l.078.962-.275.02-.079-.963.276-.02zm-1.159 1.827l.51-.04c-.058.825-.274 1.257-.648 1.297l-.274.019c.294-.55.432-.982.412-1.276zm-.825 2.514l.236-.02.02.255-.452.786-.51.04-.02-.256c.53-.04.765-.315.726-.805zm-.824 2.278l-.177 1.257-.236.02-.098-1.238.51-.04zM123.24 60.65c-.334 1.65-.687 2.495-1.06 2.534l-.02-.216c-.06-.825.294-1.61 1.08-2.318zm-1.552 3.32l.02.216c.04.353-.118.55-.471.57l-.02-.256c-.02-.255.138-.432.471-.53zm-.432 6.914l.786-.06.02.256c-.177.02-.453.118-.767.295l-.51.039c-.02-.275.137-.451.471-.53zm22.053-6.816c-4.32 2.141-6.893 3.595-7.698 4.341-4.713 1.65-7.05 2.671-7.01 3.084-4.183 1.67-6.932 2.867-8.228 3.633-.315.02-.766-.098-1.355-.373-.079-.844.314-1.532 1.138-2.043.747-.058 1.453.04 2.102.315.785-.393 2.14-.825 4.065-1.316l-.04-.491-1.61.117c.197-.274 1.708-.982 4.517-2.12l.785-.06.02.216c-1.335.118-2.082.511-2.239 1.218.02.314.216.472.55.432.982-.648 1.453-1.021 1.453-1.139 1.885-.334 7.109-3.084 15.69-8.23l.04.491c.019.216-.708.845-2.18 1.925zm-13.157 4.321c1.276-.118 2.356-.609 3.26-1.473.333-.04.53.118.55.432-.59.059-1.748.55-3.496 1.493l-.275.02-.039-.472zm21.247-16.322l-6.54 5.264c-4.889 3.201-7.54 4.812-7.952 4.852-7.776 4.281-12.607 6.5-14.512 6.658l-.275.02c.236-.884 3.712-7.975 10.428-21.292 2.925-.255 7.56-1.65 13.922-4.164l1.59-.138c3.201-.274 5.597.354 7.168 1.866l.079.963c-1.198 3.378-2.494 5.362-3.908 5.971zm-12.843-7.228l1.021-.099.02.256-1.02.098-.02-.255zm14.866-2.534l.785-.059c.727.353 1.1.668 1.12.923l.02.216c-.688.059-1.337-.294-1.925-1.08zm2.061-11.962c-.687.825-2.552 2.24-5.596 4.204-1.021.098-4.791 1.551-11.31 4.38a2.574 2.574 0 0 0-1.042-.138l-.039-.491c-.078-.943.334-2.121 1.237-3.555.51-2.71 1.08-4.223 1.67-4.577l5.478-12.256c-.059-.727 1.1-1.316 3.456-1.768l.785-.059.06.747c2.317-.374 3.77-.59 4.359-.648 4.32-.374 6.578.49 6.755 2.612l.51-.04-.098-1.178.511-.04c1.257.688 1.924 1.513 2.003 2.495.059.708-.295 1.571-1.041 2.573-.334.04-.53-.196-.57-.707l-.51.04-.157 1.472c-2.18 3.32-3.77 5.03-4.772 5.108-.883 1.198-1.433 1.807-1.689 1.826zm2.298 8.171l-.06-.746.511-.04 1.1.668c.02.314-.137.492-.471.53-.471-.294-.825-.432-1.08-.412zm-91.41 47.71l-.51.118-.432.373c.078.314.274.432.608.354.334-.079.472-.275.393-.59l-.059-.255zm-1.944-3.87l.059.256c.334-.079.471-.275.393-.59l-.06-.255c-.313.08-.45.275-.392.59zm13.824-32.9l.59-.137-.118-.51-.59.137.118.51zm178.186 14.968c-5.97 1.335-6.716 1.1-7.973 1.198l.04.491.55-.04.294-.02-.078-.058.647-.255c5.91-.649 6.598-.413 6.54-1.08l-.02-.236zm-32.146 4.262l.04.491h.078l-.039-.491h-.079zm-3.692-12.944l-.53-.177c-.432 1.16-.648 1.846-.628 2.043l.02.216c.412-.02.785-.727 1.138-2.082zm37.055 8.584l.04.49.863.157-.039-.49-.864-.157zm-40.629 4.969l-1.335-.157-.235.51.02.256 7.952-.668-.039-.491-6.363.55zm-3.613-17.422l-.02-.256-.274.02-.491.314.275.471c.373-.039.55-.216.51-.55zm48.012 8.838l.374-.04c.216-.019.314-.195.294-.51l-.216-.471c-1.355.118-1.983.177-3.083.786l-.02-.255-1.63.156c-.039-.49-.176-.746-.392-.726l-.844.078c-.982.079-1.454.04-1.944.413-.02-.177-.079-.255-.177-.255l-.943.078-.55.314c-.02-.176-.078-.255-.177-.255l-.333.295-.02-.256-1.316-.098-.314.02.04.49.667.177.629-.039c.216.138.451.177.726.157l.55-.275.02.216c-3.083.767-3.064.629-5.185.983-.235-.158-.412-.236-.53-.216l-.039.039c-.236-.02-.373-.177-.392-.433l1.099-.137c.078 0 .138.079.746.197.884-.433.923-.61 1.394-.649l-.039-.491c-3.024.59-1.807.197-5.597.53l-.176.02-.04-.49c4.87-.59 3.24-.256 4.91-.728.02.177.078.256.176.256.197-.197.413-.295.668-.334l.334-.02c1.708-.137 2.278.197 5.655-.746l.02.216.55-.275.51-.04c-.039-.49.707-.57.963-.589l-.04-.53c-5.93 1.198-7.481.864-9.13 1.336l-.02-.216c-1.551.274-1.61.157-2.003.176-.118.02-.295.118-.491.315-.02-.177-.079-.256-.197-.256-.058 0-.078.02-.098.02l-5.027.825c-.02-.138-.078-.216-.196-.197-2.612.55-1.905.649-5.4.963-.158.02-.373.098-.648.275-.02-.138-.099-.216-.275-.197l-2.14.177-1.434.354c-.02-.138-.098-.216-.275-.197-.805.216-1.512.354-2.082.393h-.04c-.352.04.178-.098-.097-.216l-.432.255c-.629.06-.295-.039-2.454-.02-3.79.472-3.378.531-3.79.55l-1.414-.097c.02.137-.06.235-.216.235-1.61-.216-2.435-.471-2.455-.766.216-1.532.59-2.318 1.12-2.357l.274-.02-.236.511.276-.02c.51-.274.746-.53.726-.766l-.04-.53-.51.04-.04-.491a1.77 1.77 0 0 1 .158-.982l1.159-1.866.039.49.55-.039-.04-.49-.314-.453c.413-.353.727-.55.982-.569l-.02-.256-.746.06-.059-.747c1.493-3.103 2.2-4.91 2.16-5.421l.53.216c.335-.02.491-.216.472-.57l-.51.04-.02-.216c-.04-.374.039-.727.196-1.041.805-.845 1.178-1.69 1.1-2.574.157-.02.235.06.255.236.687-.392 1.217-1.433 1.61-3.162 1.218-2.2 2.946-6.6 5.204-13.18 4.32-11.628 4.143-12.865 4.752-15.615l-.51.04c.039.353-.04.687-.197 1.001-.353-.138-.628-.216-.824-.196l-.02-.216c-.079-1.002.334-2.2 1.276-3.615l.236-.02.432 1.69.51-.04c-.019-.117.118-.785.393-2.022-.02-.256-.216-.413-.609-.432l-.49.314c-.04-.354-.02-1.277.039-2.75l-.256.02c-.432-.432-.648-.786-.667-1.08l-2.808.274c-.02-.196-.118-.49-.314-.864-.02-.255.608-.51 1.904-.766l.57.216.53-.314c.02.177.118.255.314.236l.53-.315c.02.177.118.256.315.236l.255-.02-.04-.57c-.392.04-1.433.04-3.082-.019l-.53.354-.02-.315c-13.177 1.08-20.658 1.69-22.445 1.866-.236.02-1.159 0-2.789-.04.02.217-.176.335-.569.374l-.57-.255-1.924.491c-.452.04-1.217.02-2.278-.098-.294.235-.648.373-1.08.412-.236.02 2.808-.157 5.636-.353-.295.235-.746.373-1.375.432-.432.04-.805-.02-1.12-.197-.431.197-1.825.511-4.162.982l-.57-.215-9.19 1.414c-.353-.177-.766-.236-1.237-.197-.491.04-1.316.216-2.454.53l-4.438 1.847.333.55c.216-.02.53-.137.904-.354l1.571.138-.197 1.473c-1.453.648-2.297 1.61-2.533 2.829-2.18.961-3.26 1.65-3.26 2.062l.02.255.334-.02.589-.314.687.825.099 1.14c.038.353-3.634 8.072-10.978 23.157-6.362 14.535-9.7 22.49-10.014 23.924-2.18.608-3.437 1.492-3.81 2.671.04.373.687.629 1.944.727l.059.569-.57.943.099 1.14c.059.588 1.65 1.04 4.771 1.355-.02-.197.08-.315.295-.334.059.707-.137 2.082-.589 4.124l.334-.02c1.296-1.767 1.905-2.985 1.845-3.652l.276-.02c.314-.02.648.334 1.04 1.1-.392.157-1.767 3.28-4.123 9.389l.334.55.333-.02c2.887-7.307 4.693-11.353 5.44-12.12 3.79-.333 10.348-1 19.656-2.003l.59-.353c.019.196.137.294.353.275l.608-.059.59-.354c.02.197.137.295.353.275l7.05-.609c1.865-.157 2.749-.726 2.67-1.689-.02-.255 1.08-.55 3.3-.864.216-.02.53.04.962.177-.02-.177 1.1-.354 3.338-.55.06-1.179.432-1.807 1.1-1.866l-.06-.57c-.628.059-1.335.216-2.16.491-1.472-.078-2.415-.196-2.808-.334-.392.216-.687.334-.903.354l-4.91.157-.588.314c-.02-.177-.138-.255-.354-.235l-.274.02-.629.314c-.02-.177-.53-.315-1.551-.452l-.628.373-1.218.098-.02-.314c6.323-.688 9.446-1.552 9.367-2.573.413-.04.629.157.668.57l1.846-.472-.06-.57-15.14.413c.02.197-.078.314-.294.334l-1.846-.157c-.471.039-.864.176-1.178.412l-.687-.255c-1.905.157-3.319.393-4.262.687-1.296-.098-2.729-.079-4.32.06l-3.397.294-1.57-.177c-.08-1.001 1.865-5.932 5.87-14.77 1.16-2.986 2.22-4.852 3.24-5.56.217-.019.531.06.963.236l2.415-.825 1.237.197c2.082-.177 4.497-.766 7.266-1.788.688-.058 1.198-.019 1.57.138l1.847-.432 5.498-.471c2.337-.197 4.87-.708 7.62-1.552l-.06-.57c-1.02.099-1.55-.078-1.59-.491-.059-.766-.805-1.08-2.239-.963l-.059-.569 1.513-.432 3.966-.334-.06-.57c-.156.02-.96 0-2.453-.059l-.06-.608 1.532-.138c.413-.039.59-.236.55-.628-2.062.059-3.102-.04-3.122-.315-14.375.707-21.58.845-21.62.393-.216.02-.51.157-.903.393l-.374-.59c3.81-8.092 6.048-12.177 6.697-12.236.019.314-.138.825-.492 1.512l.02.255.609-.058c1.512-3.614 2.788-5.48 3.849-5.559 4.516-.393-.629-.687 9.033-2.2.393.177.667.256.864.236 3.79-.766 9.072-1.571 15.847-2.396l-.04-.57-3.613.334-.039-.57a1.961 1.961 0 0 0 1.08-.412l.02.314c.196-.02.47-.157.825-.393.628-.059 1.099 0 1.433.177 1.257-.334 2.278-.53 3.024-.609l2.258-.216c.55-.353.805-.668.786-.962l-.02-.256c-.57.059-1.218.02-1.983-.118-.02-.314.137-.53.51-.628l4.203-.393 1.924-.491c.02.216.118.295.275.295.196-.02.471-.157.825-.393.098.02.216.02.314.04-.255.53-.55 1.296-.845 2.297l-.55.04a2.395 2.395 0 0 0-.314-1.002l-.274.02c-5.106 14.22-7.384 20.84-12.097 31.76-.864 2.79-1.59 4.341-2.219 4.675.02.314.216.471.55.432.118 1.375-.197 2.73-.962 4.066-2.18 6.285-3.633 9.722-4.38 10.351l.491 2.966c.02.314-.137.49-.47.53l-.511.04c-.079-.826-.373-1.218-.904-1.16l-.274.02c-.668 1.042-1.179 2.24-1.513 3.634l.511-.04c.688-.45 1.002-.981.943-1.59l1.021-.099.589.217c-.471.746-.687 1.335-.648 1.787l.275.472-.668 1.57.02.256c.589-.059 1.237.138 1.924.55.471-.039.982-.255 1.552-.629.589-.058 2.788-.078 6.578-.078l1.904-.648c2.318-.02 2.691.04 4.694-.137l.825-.08.432-.294.02.256c2.1-.177 2.238-.04 3.887.157l.02.255-1.158.098.039.491c.353-.039.667-.137.923-.353.294-.02.47.137.49.49a6.91 6.91 0 0 0-1.59.355l-.51-.178c-.805.217-.629.276-1.179.315l-.805-.157c.02.137-.059.235-.196.235.02.315.196.472.49.452l.825-.078 4.3-.374 1.63-.353c.02.138.08.216.217.196l.785-.294 1.473-.118c1.14-.098 1.12-.177 3.593-.57-.019-.157.04-.216.158-.235l.02.215c4.025-.687 4.28-.726 4.928-.943l.059.118c1.002-.235.432-.176.707-.373.02.177.079.255.177.255l.706-.058-.038-.53-1.434-.02-.02-.04c-.059.02-.098.02-.157.04h-.196v.04c-.962.196-.982.058-1.61.117l-3.594.196-.02-.255 2.003-.275.727-.06.413-.294.019.256c2.828-.236 3.83.471 16.907-2.318.707-.059.648-.648 1.1-1.866a1.222 1.222 0 0 1-.687-.157c-1.08.412-1.65.216-3.731.55-.177.02-.314-.138-.374-.452l-.02-.216 2.004.059c.373-.04 1.1-.098 2.18-.707 0 .177-.393.275-.158.255zm-96.691 1.552l-.924.078c-.039-.373.452-1.787 1.473-4.203l.61-.059c.019.57-.355 1.964-1.16 4.184zm1.119-4.478l-.02-.256c-.02-.314.177-.53.609-.628l.02.255c.019.373-.177.59-.61.629zm12.273 9.487l.02.255-1.532.138-.02-.256 1.532-.137zm-1.846-.158c.02.315-.452.668-1.473 1.022l-1.885-.137-.609.058-.058-.57 4.025-.373zm12.41-57.137l-.923.078-.019-.314c-.02-.314.157-.53.55-.628l.333-.02.629.255c.02.373-.157.59-.57.629zm14.041-2.75l.294-.02.04.57-.845.078c-.02-.314.138-.53.511-.628zm-3.535 1.237l-1.394-.157-.02-.255c1.826-.158 2.435-.354 3.555-.668.02.216.216.294.569.255l.04.57-.55.059c-.433.039-.806-.02-1.12-.196a2.402 2.402 0 0 1-1.08.392zm1.748 5.088l-.02-.256 2.258-.216.02.256-2.258.216zm2.415-1.965l-.02-.314 1.1-.098.02.314-1.1.098zm.255-3.85l-.294.02.255-.609 2.514-.235.02.314c-.649.059-1.493.235-2.495.51zm1.277 5.421l-.04-.569 1.1-.098c.374-.04.57.137.59.53l-1.65.137zm6.657-9.074l-1.414.393-.255.02c-.668.059-1.532.039-2.553-.06 1.826-.117 3.574-.255 4.222-.353zm-1.512 6.286l.02.255-1.944.177-.02-.256 1.944-.176zm3.18 1.512c-.019-.236-.392-.393-1.158-.472l-1.944.55-1.492.06c-.334-.237-.51-.393-.53-.511l1.728.098 3.888-.629 1.983.079.02.314c-.982.098-1.807.275-2.494.51zm20.011-5.166c.235.02.393.02.451.02a7.55 7.55 0 0 1 2.337-1.572c-.706 3.104-1.806 5.402-3.318 6.895l-1.1-.668c.923-2.338 1.473-3.89 1.63-4.675zm-3.377 5.795l.274-.02c-.373.707-.706 1.08-.982 1.1l-.058-.747c.176 0 .432-.118.766-.333zm-2.18 5.204c.53-2.121 1.04-3.319 1.512-3.633l.02.255c-.276 1.964-.708 3.005-1.277 3.084l.098 1.237c-.471.668-.687 1.179-.668 1.571l-.274.02-.158-1.709c.315-.039.57-.314.747-.825zm-.845 2.829c.02.295-.176.982-.569 2.043l-.275.02-.059-.747c.373-.864.687-1.297.903-1.316zm-15.846 46l-.02-.215.51-.04.059.747c-.275.02-.471-.138-.55-.491zm22.64.59c-.019-.176-.097-.255-.274-.236l-1.276.118-.02-.255h.118l3.024-.255.02.255c-.884.04-1.415.177-1.591.373zm-1.511-.628c.117.058.059.118 0 .157-.06-.02-.138-.079 0-.157zm.157-3.536l-1.689.138-.02-.256 1.532-.137 1.335-.334c.02.157.099.216.275.196 1.59-.275 1.434-.353 2.2-.412.255-.02.412.137.432.452l-4.065.353zm5.91-.51c-.942-.099-1.001-.177-1.668-.119l-.02-.216 1.512-.137.02.216c-.158.02.412.059.157.255zm.119-.275l-.02-.217.824-.078.02.216-.824.079zm1.825-.158l-.019-.216c.137-.02.334-.117.59-.314.411-.04.627.236.667.55l-1.238-.02zm2.337-.294l-.02-.255 1.002-.08.02.256-1.002.079zm1.395-.118c-.02-.295.098-.471.353-.51l.334.431c-.02-.137.04-.216.157-.236l.255.472-1.1-.157zm-14.826 6.403l-.04-.491-.157.02.04.49.157-.019zm34.502-8.937c.157-.098.235-.196-.138-.255-.177.196.197.255-.196.275l.02.176c.039-.039.137-.098.215-.157l-.216.177v.02l-.412.53.825-.294h.098l-.04-.492-.156.02zm1.433 1.12l-.157.02.04.49 1.158-.098c-.02-.314-.786-.412-1.04-.412zm-1.787-.865l.02-.02v-.019s-.02.02-.02.04z" fill="#000"/><path d="M187.67 22.549l.02.314.648-.059c-.02-.196.058-.51.196-.904l-.059-.569c-.275.02-.55.432-.805 1.218zM181.465 7.62l-.059-.57-.923.079.059.57.923-.079zm-18.007 33.725c-.04-.53-1.689-2.592-4.949-6.226-.059-.668 1.06-1.67 3.358-2.986l6.559-5.716c1.473-1.866 2.336-4.89 2.592-9.094l-.079-.962c-.255-2.908-2.356-5.245-6.342-7.032-2.357-1.59-6.599-2.475-12.725-2.632-5.066.432-11.684 2.239-19.833 5.44-2.239 1.611-4.792 3.222-7.659 4.832l.04.492c.176-.02.45-.118.766-.334.333-.04.53.118.549.432l.491-.256.236-.02.02.217c.019.255-1.748 1.65-5.322 4.144l.275.511-.236.02-.589-.216c.02.176-.236.294-.727.334l.02.216.57.707c-.177.02-.452-.059-.825-.197-.825.079-1.63.51-2.435 1.336l.334-1.454c1.198-5.165 2.022-9.742 2.454-13.71l-.059-.255c-.824-.53-1.63-1.277-2.376-2.22.02-.608.02-.962 0-1.04l-.059-.217-.235.06c-2.592 3.889-7.58 10.527-14.983 19.916-5.636 6.679-8.543 10.39-8.72 11.137-2.297 2.377-3.396 3.81-3.279 4.302-.608.393-.864.785-.765 1.217-.177.04-.295-.02-.334-.196-.982 1.591-2.435 2.612-4.38 3.064l-2.042.471c-.274.06-.412.256-.392.59l.059.255.765-.177.06.216-1.729.668-3.063.707-1.61.099c-.236.235 1.276-.02.687.118l-2.003.471c-1.217.275-1.885.177-2.003-.314l-.236.059c.04.216.06.373.02.51l-.118-.49-1.61.372c-.117-.746-2.297-3.457-6.52-8.131-.078-.904 1.415-2.22 4.458-3.928l8.601-7.563c1.925-2.475 3.063-6.442 3.437-11.903l-.118-1.277c-.334-3.85-3.122-6.953-8.366-9.349-3.102-2.102-8.679-3.221-16.73-3.398-6.677.57-15.395 2.946-26.117 7.09-2.946 2.141-6.304 4.263-10.074 6.364l.059.668c.255-.02.59-.156 1.002-.392.432-.04.667.157.706.55l.668-.374.334-.02.02.315c.02.314-2.318 2.14-7.05 5.48l.373.59-.334.02L15.22 23c.02.196-.314.334-1.002.392l.04.354.785.864c-.255.02-.609-.059-1.06-.216-1.532.137-3.025 1.238-4.497 3.32l.373.589c1.276-1.179 2.022-1.768 2.238-1.787l.08.962c-.217.02-.55.157-1.003.393l.806 1.217a26.617 26.617 0 0 1 5.125-4.301c.923.236 1.414.53 1.433.845l.707-.06c5.067-3.751 10.074-6.461 15.042-8.13l.06.667c-.924 1.375-1.552 2.082-1.886 2.121.04.472.196.884.49 1.238.08.844-2.18 6.54-6.754 17.068C15.808 63.011 7.089 81.121 0 92.827c.02.236.157.55.412.943 1.748-.412 2.848-.844 3.32-1.257l.372-.039.06.668.647-.06.668-.372c.02.196.235.294.687.255l.059.668c.059.648-.314 1.63-1.1 2.985-.707.806-1.473 2.495-2.278 5.068l.02.314.648-.059c2.828-3.162 4.968-6.266 6.441-9.29 8.248-2.416 14.531-4.793 18.89-7.13 4.38-.374 7.718-1.532 9.996-3.438l-.04-.353-1.649.49-.373.04-.04-.353c3.221-.491 5.44-1.199 6.677-2.18 6.264-4.833 10.997-8.25 14.198-10.273 6.578-4.832 10.859-9.546 12.803-14.123.353-.079.707-.157 1.1-.255.922-.04 1.433-.059 1.57-.098-.038-.177.04-.275.216-.315 1.473-.157.766.098 1.709-.118l2.474-.569.413-.099-.196.118c.274.04.569.02.903-.058l.176.726-11.252 17.894-2.493 3.123-1.218 4.086.236-.06 1.217-.51-.393 1.591.118.471.334.413c-.157.04-.216.138-.177.314l.06.256.51-.118c.746-.648 1.06-1.238.942-1.768.805.137 1.335.196 1.61.118l.06.255c-.491.118-.747.51-.786 1.179l.059.255.275-.059c4.084-4.459 14.1-19.72 22.13-30.072-.255-1.119 3.928-2.671 12.568-4.675l.275-.058c.314 1.355-.353 4.635-2.003 9.84-1.06 3.143-1.57 4.871-1.492 5.146-1.375 4.184-2.023 6.443-1.944 6.796l-3.063 10.037c-1.984 5.147-3.496 10.548-4.556 16.244.176-.039.451-.02.844.079l.432-.373c.04.177.157.235.334.196l-.177-.727 1.336-.039c.392-.098.726-.59 1-1.493-.058-1.355.217-2.081.825-2.239.825-3.22 1.336-4.832 1.513-4.89.766-3.202 1.335-5.029 1.708-5.48 1.159-4.165 2.003-6.306 2.553-6.443l.118.51-.844 2.18c-1.474 6.541-2.966 11.707-4.478 15.498l.432 1.886.275-.06c3.653-7.856 8.915-23.413 15.769-46.668.196-2.043 1.178-3.634 2.925-4.754l-.392-.412-.06-.216c.786-.177 1.336-.491 1.65-.923-.04-.177-.726-.432-2.062-.786l3.417-14.653c.747-.668 1.179-1.021 1.316-1.021l.059.746c-.177.02-.452.118-.766.334l.648.923a21.03 21.03 0 0 1 3.849-3.3c.707.197 1.06.433 1.1.668l.51-.04c3.888-2.847 7.698-4.89 11.449-6.127l.038.49c-.687 1.041-1.158 1.572-1.413 1.592.039.353.137.668.314.942.059.649-1.63 4.97-5.086 12.984-7.894 18.561-14.512 32.29-19.892 41.209.02.176.137.412.353.726 1.316-.314 2.16-.648 2.494-.962l.236-.02.04.49.55-.038.49-.256c.02.138.196.197.53.177l.04.53c.038.472-.236 1.218-.845 2.24-.57.609-1.158 1.886-1.787 3.83l.02.255.51-.04c2.14-2.395 3.77-4.752 4.89-7.07 6.264-1.846 11.036-3.634 14.335-5.402 3.358-.294 5.89-1.159 7.619-2.612l-.02-.256-1.276.374-.275.02-.02-.256c2.435-.354 4.144-.903 5.066-1.63 4.753-3.654 8.346-6.266 10.781-7.798 7.58-5.52 11.115-10.823 10.683-15.91zm-1.296.334l.176 1.984c-.235.491-.49.746-.726.766l-.295-3.378c.55.196.825.392.845.628zM13.47 25.692l-.334.019-.059-.609 1.355-.118.02.315c-.216.02-.55.137-.982.393zM6.853 91.904c-.785-.353-1.492-.49-2.1-.432l-.08-.962c-.039-.373.177-.629.649-.727.431-.04.687.275.726.904 1.14-1.395 1.768-2.102 1.885-2.122l.727.295c-.236 1.964-.844 2.966-1.807 3.044zm70.713-73.99c-.334.039-1.002-1.002-1.964-3.065l-.059-.609c.629-.058 1.277.963 1.964 3.064l.059.61zm-.943-7.327l-.275.648-9.602-4.007c6.402.216 9.7 1.336 9.877 3.36zm-40.55 34.825l-1.355.118-.059-.61 1.355-.117.059.61zm-1.1-20.919l.334-.02.079.963c-.314.02-.727.491-1.238 1.395l-.058-.668c.608-.727.923-1.277.883-1.67zm-2.847 6.718l.118 1.277-.334.02-.118-1.277.334-.02zm-1.492 2.396l.648-.059c-.06 1.061-.354 1.63-.884 1.67l-.334.02c.412-.707.609-1.258.57-1.63zm-1.12 3.34l.374-.04.019.314-.609 1.022-.648.059-.02-.315c.649-.058.943-.392.884-1.04zm-1.1 3.005l-.196 1.61-.333.02-.138-1.591.668-.04zM17.399 71.28c-.432 2.2-.903 3.319-1.394 3.358l-.02-.314c-.117-1.08.354-2.102 1.414-3.044zm-2.022 4.38l.02.314c.039.432-.158.687-.59.707l-.02-.315c-.039-.373.158-.608.59-.707zm-.59 9.094l1.022-.098.04.353c-.256.02-.59.157-1.003.393l-.648.059c-.039-.334.177-.59.59-.707zm29.063-8.977c-5.734 2.829-9.111 4.754-10.113 5.755-6.205 2.161-9.288 3.497-9.229 4.027-5.518 2.18-9.151 3.79-10.899 4.793-.412.039-1-.118-1.787-.472-.098-1.12.413-2.023 1.493-2.75a5.8 5.8 0 0 1 2.769.432c1.02-.53 2.808-1.12 5.34-1.748l-.058-.668-2.042.177c.255-.353 2.219-1.276 5.91-2.77l1.021-.097.02.314c-1.747.157-2.71.667-2.926 1.591.04.412.275.59.707.55 1.316-.825 1.964-1.316 1.944-1.454 2.494-.47 9.387-4.085 20.678-10.822l.059.609c.02.294-.943 1.119-2.887 2.533zm-17.32 5.697c1.65-.138 3.064-.806 4.242-1.964.471-.04.727.137.746.55-.805.078-2.356.746-4.614 2.042l-.334.02-.04-.648zm27.944-21.47l-8.66 6.875c-6.44 4.223-9.897 6.345-10.408 6.384-10.25 5.637-16.632 8.564-19.106 8.78l-.373.04c.314-1.16 4.87-10.49 13.706-28.05 3.888-.333 10.015-2.14 18.36-5.44l2.043-.177c4.222-.373 7.383.452 9.465 2.416l.118 1.277c-1.551 4.498-3.28 7.13-5.145 7.896zM37.546 50.48l1.394-.118.02.314-1.395.118-.02-.314zm19.578-3.32l1.021-.098c.942.452 1.433.845 1.473 1.198l.02.314c-.904.079-1.749-.393-2.514-1.414zm2.768-15.772c-.903 1.08-3.377 2.926-7.422 5.519-1.336.118-6.304 2.043-14.905 5.814a2.726 2.726 0 0 0-1.374-.236l-.059-.609c-.098-1.237.451-2.788 1.67-4.674.667-3.536 1.394-5.559 2.198-6.05l7.168-16.126c-.079-1.002 1.453-1.768 4.595-2.298l1.021-.098.079.923c3.083-.472 5.007-.746 5.753-.806 5.695-.49 8.66.668 8.896 3.438l.648-.06-.138-1.63.707-.058c1.67.923 2.573 2.043 2.69 3.358.079.904-.412 2.024-1.453 3.36-.432.038-.687-.276-.726-.904l-.707.059-.157 1.964c-2.887 4.321-4.988 6.54-6.284 6.659-1.178 1.63-1.905 2.435-2.2 2.455zm4.4 11.294c-.59-.393-1.061-.57-1.415-.55l-.078-.963.648-.059 1.433.845c.06.452-.137.688-.589.727zm4.555 5.401c.629.256 1.002.53 1.08.786l-.314.078.02.02a.694.694 0 0 0-.197.04l-.471.373-.118-1.297zm.432 2.711l-.059-.256.825-.196.059.256-.825.196zm1.984 2.22c.844-.138 1.256-.197 2.827-.55l.059.255-2.985.687c.04-.137.079-.274.099-.392zm2.906 1.237c-1.257.118-.982-.04-2.985.412l-.059-.255 2.513-.805 1.198-.275.118.471c-.55.118-.157.118-.785.452zm2.65-.629c-.294.079-.53-.058-.667-.392l.766-.177c.334-.079.55.059.628.393l-.726.176zm7.188-7.739l-.06-.255 1.238-.295.118.472-1.296.078zm7.678 47.102c.078-.354.098-.61.058-.786l.276-.059c.334-.078.53.04.608.354l.06.255-1.002.236zm5.38-45.078l-.55-.099c-.883.354-1.63.61-2.238.747l-.51.118c-.295.078-.531-.04-.649-.354l3.594-.825 1.178-.55.393.452c-.57.118-.982.294-1.218.51zm2.77-.885l-.06-.255c.177-.04.412-.176.668-.432l2.553-.59.058.256c-1.354.334-2.435.668-3.22 1.021zm.392-5.165c-.177.04-.413.196-.707.432-.04-.177-.393-.177-1.06-.02-.118-.49 1.767-1.178 5.675-2.082l.55-.118.117.472c-2.749.805-4.28 1.257-4.575 1.316zm6.873-7.425c-.275 3.123-1.375 4.89-3.32 5.343l-.058-.255-1.728.667-.765.177a1.928 1.928 0 0 1-1.06-.02l-.158-.687c-.059-.255 2.435-3.713 7.501-10.351l.589.098c.216.904-.117 2.573-1.001 5.028zm12.155-10.41l-.236.02-.04-.491 1.022-.098.02.255c-.177.039-.432.137-.766.314zm-5.008 50.303c-.588-.275-1.119-.393-1.57-.354l-.06-.746c-.019-.255.138-.432.472-.53.334-.04.53.196.57.706.844-1.08 1.315-1.63 1.413-1.63l.53.217c-.196 1.492-.647 2.278-1.355 2.337zm53.688-56.176c-.255.02-.747-.766-1.512-2.357l-.04-.491c.491-.04 1.002.727 1.513 2.298l.039.55zm-.707-5.618l-.236.511-7.265-3.044c4.85.157 7.363 1.002 7.501 2.533zm-30.81 26.458l-1.021.099-.04-.492 1.021-.098.04.491zm-.845-15.89l.275-.02.06.746c-.256.02-.57.374-.943 1.061l-.04-.49c.452-.57.668-1.003.648-1.297zm-2.14 5.107l.079.962-.276.02-.078-.962.275-.02zm-1.159 1.826l.51-.039c-.058.825-.274 1.257-.647 1.296l-.275.02c.294-.55.432-.982.412-1.277zm-.825 2.515l.236-.02.02.255-.452.786-.51.04-.02-.256c.53-.04.766-.314.726-.805zm-.824 2.278l-.177 1.257-.236.02-.098-1.237.51-.04zm-8.385 23.826c-.334 1.65-.687 2.494-1.06 2.533l-.02-.216c-.06-.825.294-1.61 1.08-2.317zm-1.552 3.32l.02.215c.04.354-.118.55-.471.57l-.02-.255c-.02-.256.138-.433.471-.53zm-.432 6.913l.786-.059.02.255c-.177.02-.452.118-.766.295l-.51.04c-.02-.276.136-.452.47-.531zm22.053-6.816c-4.32 2.142-6.893 3.595-7.698 4.341-4.713 1.65-7.05 2.671-7.01 3.084-4.183 1.67-6.932 2.867-8.228 3.634-.314.02-.766-.099-1.355-.373-.079-.845.314-1.533 1.139-2.043.746-.059 1.453.04 2.101.314.785-.393 2.14-.825 4.065-1.316l-.04-.491-1.59.138c.196-.276 1.708-.983 4.517-2.122l.785-.059.02.216c-1.336.118-2.082.511-2.24 1.218.02.314.217.471.55.432.983-.648 1.454-1.021 1.454-1.139 1.885-.334 7.108-3.084 15.69-8.23l.039.491c0 .196-.727.825-2.2 1.905zm-13.157 4.322c1.276-.118 2.357-.61 3.26-1.474.334-.02.53.118.55.433-.59.058-1.748.55-3.496 1.492l-.274.02-.04-.471zm21.247-16.323l-6.539 5.264c-4.89 3.202-7.54 4.812-7.953 4.852-7.776 4.282-12.607 6.501-14.512 6.658l-.275.02c.236-.884 3.712-7.975 10.428-21.292 2.925-.255 7.56-1.65 13.922-4.164l1.59-.137c3.202-.275 5.597.353 7.168 1.865l.08.963c-1.199 3.378-2.495 5.362-3.909 5.971zm-12.843-7.228l1.022-.098.02.255-1.022.098-.02-.255zm14.866-2.534l.785-.059c.727.354 1.1.668 1.12.923l.02.217c-.688.058-1.336-.295-1.925-1.08zm2.062-11.962c-.688.825-2.553 2.24-5.597 4.204-1.02.098-4.791 1.551-11.31 4.38a2.582 2.582 0 0 0-1.041-.138l-.04-.49c-.078-.944.334-2.122 1.238-3.556.51-2.71 1.08-4.223 1.669-4.577l5.478-12.256c-.059-.727 1.1-1.316 3.456-1.768l.786-.059.059.746c2.317-.373 3.77-.589 4.36-.647 4.32-.374 6.577.49 6.754 2.612l.51-.04-.097-1.178.51-.04c1.257.688 1.925 1.513 2.003 2.495.059.707-.294 1.571-1.04 2.573-.335.04-.53-.196-.57-.707l-.51.04-.158 1.473c-2.18 3.32-3.77 5.028-4.772 5.107-.883 1.197-1.433 1.807-1.688 1.826zm2.297 8.171l-.059-.746.51-.04 1.1.668c.02.315-.137.492-.47.53-.472-.294-.825-.431-1.08-.412zm-91.41 47.71l-.51.118-.432.373c.078.315.275.432.609.354.333-.078.47-.275.392-.589l-.059-.256zm-1.944-3.869l.059.255c.334-.078.472-.275.393-.589l-.06-.255c-.313.078-.45.275-.392.59zM77.33 54.231l.374-.236c-.08 0-.138-.02-.197-.039-.137.04-.197.137-.177.275zm-.078-6.776l.589-.138-.118-.51-.59.137.119.51zm138.774 19.838l-1.336-.157-.235.51.02.256 7.952-.668-.039-.49-6.362.549zm7.266-.609l.038.491h.079l-.039-.49h-.078zm33.362-4.36l.04.49.864.158-.04-.491-.864-.158zm-1.217.098c-5.97 1.336-6.716 1.1-7.972 1.198l.039.49.55-.038.294-.02-.078-.059.648-.255c5.91-.648 6.597-.413 6.539-1.08l-.02-.236zM219.6 53.74l-.53-.176c-.432 1.158-.648 1.846-.629 2.042l.02.216c.412-.02.785-.727 1.139-2.082zm-7.187-3.869l-.02-.256-.275.02-.491.314.275.472c.373-.04.55-.217.51-.55zm15.611 16.145l-.04-.49-.156.019.039.49.157-.019zm32.4-7.306l.374-.04c.216-.02.314-.196.294-.51l-.216-.472c-1.355.118-1.983.177-3.082.786l-.02-.256-1.63.158c-.04-.492-.177-.747-.393-.727l-.844.078c-.982.079-1.453.04-1.944.413-.02-.177-.079-.256-.177-.256l-.943.08-.55.314c-.02-.178-.078-.256-.176-.256l-.334.295-.02-.256-1.315-.098-.314.02.039.49.667.178.629-.04c.216.138.452.177.726.157l.55-.274.02.216c-3.083.765-3.063.628-5.184.981-.236-.156-.413-.235-.53-.216l-.04.04c-.235-.02-.373-.177-.392-.432l1.1-.138c.078 0 .137.079.745.197.884-.432.923-.61 1.394-.648l-.038-.492c-3.025.59-1.807.197-5.597.53l-.177.02-.04-.49c4.871-.59 3.24-.256 4.91-.727.02.176.079.255.177.255.196-.197.412-.295.667-.334l.334-.02c1.709-.137 2.278.197 5.656-.746l.02.216.55-.275.51-.039c-.04-.491.707-.57.962-.59l-.04-.53c-5.93 1.198-7.481.864-9.13 1.336l-.02-.216c-1.551.275-1.61.157-2.003.177-.118.02-.295.118-.491.314-.02-.177-.078-.256-.196-.256-.06 0-.079.02-.098.02l-5.028.825c-.019-.137-.078-.216-.196-.196-2.612.55-1.905.648-5.4.962-.157.02-.373.098-.648.275-.02-.137-.099-.216-.275-.196l-2.14.177-1.434.353c-.02-.137-.098-.216-.275-.196-.805.216-1.512.353-2.082.392h-.039c-.353.04.177-.098-.098-.215l-.432.255c-.628.059-.294-.04-2.454-.02-3.79.472-3.378.53-3.79.55l-1.414-.098c.02.137-.06.236-.216.236-1.61-.216-2.435-.472-2.455-.766.216-1.532.59-2.318 1.12-2.358l.275-.019-.236.51.275-.019c.51-.275.746-.53.726-.766l-.039-.53-.51.039-.04-.491c-.04-.373.02-.707.157-.982l1.159-1.867.039.492.55-.04-.04-.49-.314-.452c.413-.354.727-.55.982-.57l-.02-.255-.746.058-.058-.746c1.492-3.103 2.199-4.91 2.16-5.42l.53.215c.334-.02.49-.216.471-.57l-.51.04-.02-.216c-.04-.374.039-.727.196-1.041.805-.845 1.179-1.69 1.1-2.573.157-.02.235.059.255.235.688-.392 1.218-1.434 1.61-3.162 1.218-2.2 2.946-6.6 5.204-13.18 4.32-11.628 4.143-12.865 4.752-15.615l-.51.04c.04.353-.04.687-.197 1.001-.353-.138-.628-.216-.824-.196l-.02-.216c-.078-1.002.334-2.2 1.276-3.615l.236-.02.432 1.69.51-.039c-.019-.118.119-.786.393-2.023-.02-.256-.216-.413-.608-.432l-.491.314c-.04-.354-.02-1.277.039-2.75l-.256.02c-.431-.432-.647-.786-.667-1.08l-2.808.274c-.02-.196-.118-.49-.314-.864-.02-.255.609-.51 1.904-.766l.57.216.53-.314c.02.177.118.255.314.235l.53-.314c.02.177.118.256.315.236l.255-.02-.04-.57c-.392.04-1.432.04-3.082-.019l-.53.354-.02-.315c-13.177 1.08-20.658 1.69-22.445 1.866-.236.02-1.159 0-2.788-.04.019.217-.177.335-.57.374l-.57-.255-1.924.491c-.451.04-1.217.02-2.278-.099-.294.236-.648.374-1.08.413-.235.02 2.808-.157 5.636-.353-.294.235-.746.373-1.375.432-.432.039-.804-.02-1.119-.197-.432.197-1.826.511-4.163.982l-.57-.216-9.19 1.415c-.353-.177-.765-.236-1.237-.197-.49.04-1.315.216-2.454.53l-4.438 1.847.333.55c.216-.02.53-.138.904-.354l1.571.138-.196 1.473c-1.453.648-2.298 1.61-2.534 2.828-2.179.963-3.26 1.65-3.26 2.063l.02.255.334-.02.59-.314.686.825.099 1.14c.039.353-3.633 8.072-10.978 23.157-6.362 14.535-9.7 22.49-10.014 23.924-2.18.609-3.437 1.493-3.81 2.671.04.373.688.629 1.944.727l.059.57-.57.942.099 1.14c.059.589 1.65 1.04 4.772 1.355-.02-.196.078-.314.294-.334.059.707-.137 2.082-.589 4.125l.334-.02c1.296-1.768 1.905-2.986 1.846-3.653l.275-.02c.314-.02.648.334 1.04 1.1-.392.157-1.767 3.28-4.123 9.389l.334.55.333-.02c2.887-7.306 4.694-11.353 5.44-12.119 3.79-.334 10.348-1.001 19.656-2.003l.59-.354c.019.197.137.295.353.275l.609-.06.589-.352c.02.196.138.294.354.274l7.05-.608c1.864-.158 2.748-.727 2.67-1.69-.02-.255 1.08-.55 3.299-.864.216-.02.53.04.962.177-.02-.177 1.1-.353 3.338-.55.06-1.178.432-1.807 1.1-1.866l-.059-.57c-.628.06-1.336.217-2.16.491-1.473-.078-2.416-.196-2.808-.334-.393.216-.688.334-.904.354l-4.909.157-.59.314c-.019-.176-.136-.255-.352-.235l-.275.02-.629.314c-.02-.177-.53-.315-1.551-.452l-.628.373-1.218.098-.02-.314c6.324-.687 9.446-1.552 9.367-2.573.413-.04.629.157.668.57l1.846-.472-.059-.57-15.14.413c.02.196-.079.314-.295.334l-1.846-.157c-.47.039-.863.177-1.178.412l-.687-.255c-1.905.157-3.319.393-4.262.688-1.295-.099-2.729-.08-4.32.058l-3.396.295-1.571-.177c-.08-1.002 1.865-5.932 5.871-14.77 1.159-2.986 2.219-4.852 3.24-5.559.216-.02.53.059.962.235l2.415-.824 1.237.196c2.082-.177 4.498-.766 7.267-1.787.687-.06 1.197-.02 1.57.137l1.846-.432 5.498-.472c2.337-.196 4.87-.707 7.62-1.551l-.06-.57c-1.02.099-1.55-.078-1.59-.49-.059-.767-.805-1.081-2.238-.963l-.06-.57 1.513-.432 3.966-.334-.059-.57c-.157.02-.962 0-2.454-.058l-.059-.61 1.531-.137c.413-.039.59-.236.55-.628-2.061.058-3.102-.04-3.122-.315-14.374.707-21.58.845-21.62.393-.216.02-.51.158-.903.393l-.373-.59c3.809-8.092 6.047-12.177 6.696-12.236.02.314-.138.825-.472 1.513l.02.255.609-.06c1.512-3.613 2.788-5.48 3.848-5.558 4.517-.393-.628-.687 9.034-2.2.392.177.667.256.863.236 3.79-.766 9.073-1.571 15.847-2.396l-.039-.57-3.613.334-.04-.57c.433-.039.786-.177 1.08-.412l.02.314c.197-.02.472-.157.825-.393.629-.058 1.1 0 1.434.177 1.256-.334 2.278-.53 3.024-.609l2.258-.216c.55-.353.805-.668.786-.963l-.02-.255c-.57.06-1.217.02-1.983-.118-.02-.314.137-.53.51-.628l4.202-.393 1.925-.491c.02.216.118.294.275.294.196-.019.471-.156.824-.392.099.02.216.02.314.04-.255.53-.549 1.296-.844 2.297l-.55.04a2.408 2.408 0 0 0-.314-1.002l-.275.02c-5.105 14.22-7.383 20.84-12.096 31.76-.864 2.79-1.59 4.341-2.219 4.675.02.314.216.471.55.432.118 1.375-.196 2.73-.962 4.066-2.18 6.286-3.633 9.723-4.38 10.351l.492 2.966c.019.315-.138.491-.472.53l-.51.04c-.079-.825-.374-1.218-.903-1.159l-.276.02c-.667 1.04-1.178 2.239-1.511 3.633l.51-.04c.687-.45 1.001-.98.943-1.59l1.02-.098.59.216c-.471.746-.687 1.336-.648 1.787l.275.472-.668 1.571.02.256c.59-.06 1.237.137 1.924.55.471-.04.982-.256 1.551-.63.59-.058 2.789-.078 6.579-.078l1.905-.648c2.317-.02 2.69.04 4.693-.138l.824-.078.432-.295.02.256c2.101-.177 2.239-.04 3.888.157l.02.255-1.159.099.04.49c.353-.039.667-.137.923-.353.294-.02.47.137.49.491-.47.04-1 .157-1.59.353l-.51-.176c-.806.216-.63.275-1.18.314l-.804-.157c.02.137-.059.235-.196.235.02.315.196.472.49.452l.825-.078 4.301-.374 1.63-.353c.02.137.078.216.216.197l.785-.295 1.473-.118c1.139-.098 1.12-.177 3.594-.57-.02-.157.039-.216.156-.235l.02.216c4.026-.688 4.28-.727 4.929-.943l.06.118c1-.236.431-.177.706-.373.02.176.078.255.176.255l.708-.059-.04-.53-1.433-.02-.02-.04c-.059.02-.098.02-.157.04h-.196v.04c-.963.196-.982.058-1.61.117l-3.594.197-.02-.256 2.003-.275.727-.059.412-.294.02.255c2.828-.236 3.829.471 16.907-2.317.707-.06.648-.649 1.1-1.867a1.22 1.22 0 0 1-.687-.157c-1.08.413-1.65.216-3.731.55-.177.02-.315-.137-.374-.451l-.02-.217 2.003.06c.374-.04 1.1-.1 2.18-.708 0 .177-.412.275-.177.256zm-96.691 1.551l-.923.079c-.04-.373.452-1.788 1.472-4.204l.61-.058c.019.569-.355 1.964-1.16 4.183zm1.12-4.478l-.02-.255c-.02-.315.176-.53.608-.629l.02.255c.02.374-.177.59-.609.629zm12.272 9.487l.02.255-1.532.138-.02-.256 1.532-.137zm-1.846-.157c.02.314-.452.668-1.472 1.021l-1.886-.137-.609.059-.058-.57 4.025-.373zm12.41-57.139l-.922.08-.02-.315c-.02-.314.157-.53.55-.628l.334-.02.628.255c.02.373-.157.59-.57.628zm14.041-2.75l.294-.019.04.57-.844.078c-.02-.314.137-.53.51-.629zm-3.535 1.238l-1.394-.157-.02-.255c1.827-.158 2.436-.354 3.555-.668.02.216.216.294.57.255l.038.57-.55.059c-.431.039-.805-.02-1.119-.197a2.4 2.4 0 0 1-1.08.393zm1.748 5.088l-.02-.256 2.259-.216.02.256-2.259.216zm2.415-1.965l-.02-.314 1.1-.098.02.314-1.1.098zm.256-3.85l-.295.02.255-.609 2.514-.236.02.314c-.649.06-1.493.236-2.494.512zm1.276 5.421l-.04-.569 1.1-.098c.374-.04.57.137.59.53l-1.65.137zm6.657-9.074l-1.414.393-.255.02c-.668.059-1.532.039-2.553-.06 1.826-.117 3.574-.255 4.222-.353zm-1.512 6.286l.02.255-1.944.177-.02-.256 1.944-.176zm3.181 1.512c-.02-.236-.393-.393-1.158-.471l-1.945.55-1.492.058c-.334-.236-.51-.392-.53-.51l1.728.098 3.888-.629 1.983.079.02.314c-.982.098-1.807.275-2.494.51zm20.01-5.166c.236.02.393.02.452.02a7.52 7.52 0 0 1 2.337-1.572c-.707 3.104-1.807 5.402-3.319 6.895l-1.1-.668c.923-2.338 1.473-3.89 1.63-4.675zm-3.377 5.794l.274-.019c-.373.707-.706 1.08-.981 1.1l-.06-.747c.178 0 .433-.118.767-.334zm-2.18 5.205c.53-2.12 1.04-3.319 1.512-3.633l.02.255c-.275 1.964-.707 3.005-1.277 3.084l.098 1.237c-.47.668-.687 1.179-.668 1.572l-.274.02-.157-1.71c.314-.039.569-.314.746-.825zm-.844 2.829c.019.294-.177.982-.57 2.043l-.275.02-.059-.747c.374-.864.688-1.296.903-1.316zm-15.847 46.001l-.02-.216.51-.04.06.747c-.276.02-.472-.137-.55-.491zm22.64.59c-.019-.178-.097-.256-.274-.236l-1.276.118-.02-.256h.118l3.024-.255.02.255c-.884.04-1.414.177-1.591.374zm-1.51-.629c.117.059.058.118 0 .157-.06-.02-.139-.079 0-.157zm.156-3.536l-1.689.138-.02-.256 1.532-.137 1.335-.334c.02.157.099.216.276.197 1.59-.275 1.433-.354 2.199-.413.255-.02.412.138.432.452l-4.065.353zm5.91-.51c-.942-.099-1-.177-1.668-.118l-.02-.216 1.512-.138.02.217c-.158.019.412.058.157.255zm.119-.275l-.02-.216.824-.08.02.217-.824.079zm1.826-.158l-.02-.216c.138-.019.334-.118.59-.314.411-.039.627.236.667.55l-1.237-.02zm2.337-.294l-.02-.256 1.001-.078.02.255-1.001.079zm1.394-.118c-.02-.294.098-.471.353-.51l.334.432c-.02-.138.04-.216.157-.236l.255.471-1.1-.157zm19.322-2.278l.02-.02v-.02s-.02.02-.02.04zm.354-.256c.157-.098.236-.196-.138-.255-.176.197.197.255-.196.275l.02.177c.039-.04.137-.099.216-.157l-.216.176v.02l-.412.53.824-.294h.098l-.04-.492-.156.02zm1.433 1.12l-.157.02.04.49 1.158-.097c-.02-.315-.785-.413-1.04-.413z" fill="#F9DC3E"/></g></svg>