<svg xmlns="http://www.w3.org/2000/svg" viewBox="0 0 139.1 137.8"><linearGradient id="a" gradientUnits="userSpaceOnUse" x1="212.839" y1="-52.591" x2="12.362" y2="117.378"><stop offset="0" stop-color="#7a2d4e"/><stop offset=".135" stop-color="#732b4c"/><stop offset=".36" stop-color="#5f2646"/><stop offset=".647" stop-color="#411e3d"/><stop offset=".982" stop-color="#171130"/><stop offset="1" stop-color="#14102f"/></linearGradient><path fill="url(#a)" d="M118.1 137.8H21c-11.6 0-21-9.4-21-21V21C0 9.4 9.4 0 21 0h97.1c11.5 0 21 9.4 21 21v95.8c0 11.5-9.5 21-21 21z"/><path fill="#FFF" d="M75.8 26c3.9 0 7.4.3 10.6 1 3.2.7 6 1.8 8.2 3.4C97 32 98.8 34 100 36.6c1.3 2.6 1.9 5.8 1.9 9.6 0 4.1-.9 7.6-2.8 10.3-1.9 2.7-4.6 5-8.3 6.8 5 1.5 8.8 4 11.3 7.6 2.5 3.6 3.7 8 3.7 13.1 0 4.1-.8 7.7-2.4 10.7-1.6 3-3.8 5.5-6.5 7.4-2.7 1.9-5.8 3.3-9.3 4.2-3.5.9-7 1.4-10.7 1.4H37.4V26h38.4zm-2.3 33.1c3.2 0 5.8-.8 7.9-2.3 2.1-1.5 3.1-4 3.1-7.4 0-1.9-.3-3.5-1-4.7-.7-1.2-1.6-2.2-2.7-2.9-1.1-.7-2.5-1.2-3.9-1.4-1.5-.3-3-.4-4.6-.4h-17v19.1h18.2zm1.1 34.7c1.8 0 3.4-.2 5-.5s3-.9 4.2-1.7c1.2-.8 2.2-1.9 2.9-3.3.7-1.4 1.1-3.1 1.1-5.3 0-4.2-1.2-7.2-3.5-9-2.4-1.8-5.5-2.7-9.4-2.7H55.3v22.4h19.3z"/></svg>