<svg width="219" height="92" xmlns="http://www.w3.org/2000/svg"><g fill="none"><path d="M131.44 30.617c-4.86 0-8.48 2.352-8.48 8.013 0 4.265 2.385 7.227 8.217 7.227 4.944 0 8.302-2.872 8.302-7.403 0-5.136-3.005-7.837-8.04-7.837zm-9.718 39.974c-1.15 1.39-2.296 2.87-2.296 4.613 0 3.48 4.503 4.528 10.689 4.528 5.124 0 12.103-.354 12.103-5.05 0-2.79-3.358-2.963-7.6-3.225l-12.896-.866zm26.15-39.711c1.587 2.003 3.268 4.79 3.268 8.796 0 9.665-7.686 15.324-18.815 15.324-2.83 0-5.392-.347-6.98-.782l-2.917 4.614 8.657.521c15.285.96 24.293 1.397 24.293 12.973 0 10.017-8.92 15.674-24.293 15.674C115.095 88 109 83.995 109 77.116c0-3.92 1.767-6.004 4.86-8.883-2.917-1.214-3.888-3.39-3.888-5.743 0-1.917.97-3.658 2.564-5.314 1.59-1.652 3.355-3.309 5.476-5.224-4.328-2.09-7.598-6.618-7.598-13.063 0-10.012 6.715-16.889 20.228-16.889 3.8 0 6.098.344 8.13.87H156v7.4l-8.129.61zm23.445-15.34c-5.001 0-7.894-2.883-7.894-7.86 0-4.972 2.893-7.68 7.894-7.68 5.087 0 7.982 2.708 7.982 7.68 0 4.977-2.895 7.86-7.982 7.86zM160 68v-6.893l4.475-.609c1.228-.176 1.403-.437 1.403-1.749V33.084c0-.958-.262-1.572-1.142-1.831L160 29.593l.964-7.069h18.158V58.75c0 1.4.085 1.573 1.404 1.75l4.474.608V68h-25zm59-3.502C215.283 66.335 209.84 68 204.912 68c-10.283 0-14.17-4.2-14.17-14.102V30.951c0-.525 0-.876-.694-.876H184v-7.796c7.607-.877 10.63-4.732 11.58-14.279h8.21v12.441c0 .611 0 .876.692.876h12.183v8.758H203.79v20.933c0 5.168 1.211 7.18 5.875 7.18 2.422 0 4.925-.612 7-1.4l2.335 7.71" fill="#2F2707"/><path d="M90.265 41.902L50.096 1.735a5.924 5.924 0 0 0-8.378 0l-8.341 8.341 10.58 10.582a7.033 7.033 0 0 1 7.24 1.686 7.044 7.044 0 0 1 1.671 7.284l10.197 10.197A7.04 7.04 0 0 1 70.35 41.5a7.048 7.048 0 0 1 0 9.97 7.05 7.05 0 0 1-11.507-7.67l-9.51-9.51-.001 25.027a7.123 7.123 0 0 1 1.864 1.333 7.05 7.05 0 1 1-7.661-1.538v-25.26a6.964 6.964 0 0 1-2.308-1.538 7.048 7.048 0 0 1-1.519-7.707l-10.43-10.432-27.542 27.54a5.926 5.926 0 0 0 0 8.382l40.169 40.168a5.925 5.925 0 0 0 8.379 0l39.98-39.98a5.93 5.93 0 0 0 0-8.383" fill="#DE4C36"/></g></svg>