<svg xmlns="http://www.w3.org/2000/svg" viewBox="0 0 103.1 138.8"><path fill="#462F15" d="M1.4 12.6s17.9-18.3 34 4.7c.9-.3 2-.7 2-.7s1.7-9.5 8-13.3c.2 5 1.9 8 1.9 8s2-8.6 10.2-11.3c-2 6.8.7 9.7.7 9.7S66 5 67.7 6.4c-2.2 2.5-2.9 10-2.9 10l2.2.9s21.2-23.7 34.9-4.4C86.8 14.7 91 25 91 25s16.8 2 5.8 16.3c-1.8 6.1.5 10.6.5 10.6s17.4 11.3-8.4 23.1c-4.5 3.1-.9 23.8-.9 23.8s5.6-3.5 6.6-12.2c15.7 18.9-2.3 32.9-7.1 33.6-5.3 11.7-17.7 13.5-17.7 13.5s-3.6 5.2-16.6 5.2-19.3-5.2-19.3-5.2-13.8-1.8-17.6-13.5c-2.9-.7-21.7-10.6-7.8-33.6 1.9 9.4 7.1 11.3 7.1 11.3s3.3-20.4-.9-22.9C8.3 71.6-8.9 63.5 5.8 52c3.2-4.9.6-10.8.6-10.8s-9.9-13.1 6.1-16.3C15.7 13.7 1.4 12.6 1.4 12.6z"/><path fill="#FBA919" d="M33.1 106.4H71s-6.3-16.9-6.2-24c4 7.4 8.5 20.3 8.5 20.3s9.4-.1 10.9-1.8c.3-4.7-3.1-23 1.6-27.5 6.8-6.1 18.6-8.4 10.4-17.4-.2 1.3 0 3.2 0 3.2s-7.2-11.5-2.5-23c.1 2.1.2.8 0 3.6 12.4-18.7-19.2-8.4-30.7 2.3 0 0 4.2-8.9 14.8-14.3 0 0-23.6-18.2-51.9 0 9.2 4.7 12.9 10.6 14.9 14.3-11.6-10.8-43.2-21-30.8-2.3-.2-2.9-.1-1.5 0-3.6 4.7 11.6-2.5 23-2.5 23s.2-1.8 0-3.2C-.7 65 11 67.3 17.9 73.4c4.7 4.5 1.4 22.7 1.6 27.5 1.5 1.7 10.9 1.8 10.9 1.8s4.5-12.9 8.5-20.3c.2 7-6.2 24-6.2 24h37.9m-19.1 3.5c-10.1 0-16.3-.5-19.8.2-2.3.5-3.8 2.7-3.6 5 1.1 11.3 11.3 20.6 23.6 20.6h.3c12.4 0 22.5-9.3 23.6-20.6.2-2.3-1.3-4.5-3.6-5-3.5-.8-9.7-.2-19.8-.2h-.7z"/><path fill="#463015" d="M37 123.9l-3.8-4.5c-1.2-1.5.1-3.4 2.3-3.4h7.7c2.2 0 3.5 2 2.3 3.4l-3.9 4.5c-1.1 1.3-3.5 1.3-4.6 0zm25 0l-3.8-4.5c-1.2-1.5.1-3.4 2.3-3.4h7.7c2.2 0 3.5 2 2.3 3.4l-3.9 4.5c-1.1 1.3-3.5 1.3-4.6 0z"/><path fill="#FFF" d="M28 106.6s-16.3.2-20.4-12.5c-6.5 23.2 17 24.4 17 24.4s-1.2-2.7-.6-5.8c.1-.3.2-.7.3-1 1.3-2.6 3.7-5.1 3.7-5.1zm47.7 0s16.3.2 20.4-12.5c6.5 23.2-17 24.4-17 24.4s1.2-2.7.6-5.8c-.1-.3-.2-.7-.3-1-1.3-2.6-3.7-5.1-3.7-5.1z"/><path fill="#462F15" d="M44.2 46.5s3 2.2 7.3 2.2c4 0 7.3-2.2 7.3-2.2s-3.6 4.8-7.3 4.8-7.3-4.8-7.3-4.8zm-30.1.7C34.6 43.6 35.7 63.4 46 58.3c.9 4.7-5.7 5.4-5.7 5.4s-.1 6.2-3.3 8.4c1.5-7.3.3-8.7-.4-9.1-.6 2.3-16.9 7.4-18.2-10.7-.3-4.3-1.3 2.7-1.4 4.4-3-4.2 0-7.7 0-7.7s1.7-1.4-2.9-1.8zm74.1 0c-20.5-3.6-21.6 16.2-31.9 11.1-1 4.7 5.7 5.4 5.7 5.4s.1 6.2 3.3 8.4c-1.5-7.3-.3-8.7.4-9.1.6 2.3 16.9 7.4 18.2-10.7.3-4.3 1.3 2.7 1.4 4.4 3.1-4.3.1-7.7.1-7.7s-1.8-1.4 2.8-1.8z"/><path fill="#FFF" d="M23.4 51.1c4.6 2.7 8.9 5.6 12 9.8-2.9 2.1-7 2-10-.1-2.3-1.7-3.3-5.8-2-9.7zm55.7 0c-4.6 2.7-8.9 5.6-12 9.8 2.9 2.1 7 2 10-.1 2.3-1.7 3.2-5.8 2-9.7z"/><path fill="#FBA919" d="M9.9 11.8l1.3.8c.1.1.3.1.4.1 1.4-.3 10-1.4 15.6 7.6.1.2.5.3.7.2l2.1-1.1c.3-.1.4-.5.2-.8-1.4-2.3-8-12-20.2-7.8-.5.1-.5.7-.1 1z"/><path fill="#E88824" d="M14.6 15.6s7.6-.4 9 7.7l-3 3.3s-4.2.3-3.9-4.1-2.1-6.9-2.1-6.9z"/><path fill="#FBA919" d="M93.1 11.8l-1.3.8c-.1.1-.3.1-.4.1-1.4-.3-10-1.4-15.6 7.6-.1.2-.5.3-.7.2L73 19.4c-.3-.1-.4-.5-.2-.8 1.4-2.3 8-12 20.2-7.8.4.1.4.7.1 1z"/><path fill="#E88824" d="M88.3 15.6s-7.6-.4-9 7.7l3 3.3s4.2.3 3.9-4.1 2.1-6.9 2.1-6.9z"/><path fill="#FBA919" d="M20.5 121.5s3.5 6.1 8.1 6.8c0 0-2.4-3.6-3.1-6.2-2.4 0-5-.6-5-.6zm62 0s-3.5 6.1-8.1 6.8c0 0 2.4-3.6 3.1-6.2 2.3 0 5-.6 5-.6z"/></svg>