<svg xmlns="http://www.w3.org/2000/svg" height="201.12" viewBox="0 0 423.484 201.121" width="423.48" enable-background="new"><defs><linearGradient id="c" y2="100.56" gradientUnits="userSpaceOnUse" x2="423.48" y1="100.56"><stop stop-color="#fff" offset="0"/></linearGradient><linearGradient id="a" y2="198.49" gradientUnits="userSpaceOnUse" x2="207.24" y1="-.195" x1="207.24"><stop stop-color="#2b5187" offset="0"/><stop stop-color="#254878" offset=".528"/><stop stop-color="#172e4e" offset="1"/></linearGradient><filter id="b" color-interpolation-filters="sRGB"><feFlood result="flood" flood-opacity=".529" flood-color="#000"/><feComposite operator="in" result="composite1" in2="SourceGraphic" in="flood"/><feGaussianBlur stdDeviation="1.6" result="blur" in="composite1"/><feOffset result="offset" dx="2.1" dy="2.2"/><feComposite result="composite2" in2="offset" in="SourceGraphic"/></filter></defs><g stroke="#241f1c" fill-rule="evenodd"><rect opacity=".99" stroke-linejoin="round" stroke-opacity=".043" rx="45.675" ry="31.634" height="197.47" width="372.63" y="1.902" x="25.121" stroke-width="2" fill="url(#a)"/><path opacity=".177" stroke-width=".715" fill="#fff" d="M80.173 8.053h291.07V4.505H80.173z"/></g><path d="M93.239.5C43.607.5 25.962.453 20.059 25.876c-1.985 8.548-.575 19.51-1.293 34.787-.204 4.332.975 11.478-.487 16.273C13.439 92.812 5.407 90.928.615 91.489c-.202 6.19-.138 7.762.19 19.867 10.471-.116 17.024 6.33 17.57 13.912l.481 46.222c.127 12.172 8.714 21.94 18.32 26.155 8.46 3.712 17.45 2.543 25.8 2.952l.328-19.175c-11.506.921-18.848-2.879-21.053-12.5l-.794-45.066c-.153-8.67-4.3-16.042-13.583-22.657 7.364-4.305 12.012-11.335 12.733-18.132l1.316-50.987C44.076 21.375 54.498 20 67.91 21.225l.658 115.13c2.356 26.451 20.688 26.767 36.785 28.618l3.267-20.298c-2.874-1.237-8.035-1.108-11.723-4.685-1.697-1.645-3.999-3.157-3.987-7.582zm64.871 51.523c-26.383-.098-47.213 19.863-49.078 54.662-.061 36.816 17.12 56.689 53.033 58.15 20.212-.22 29.198-3.246 37.215-6.514l-3.73-19.07c-33.594 9.635-57.658 5.924-60.941-22.795h71.176c-.434-31.62-4.548-64.27-47.684-64.432zm2.078 20.465c10.361.193 20.27 8.078 21.414 25.824h-46.287c.808-16.382 13.131-26.043 24.873-25.824zm120.04 4.192l3.722-20.004c-14.344-4.665-28.87-6.937-43.031-4.187-19.162 3.72-26.174 14.567-28.377 26.284-1.412 15.206 3.907 27.018 17.212 32.564 22.127 9.223 36.537 14.735 34.658 23.958-3.485 17.105-33.843 9.03-49.544 2.79l-4.652 20.935c13.275 5.797 29.747 8.877 55.359 4.187 12.164-3.955 23.166-9.56 23.725-30.006.849-20.862-16.127-29.17-30.006-33.262-26.93-7.941-26.676-19.792-15.156-26.897 10.936-3.93 25.02.743 36.09 3.636zm80.97.15l3.72-20.004c-14.343-4.664-28.87-6.937-43.03-4.187-19.163 3.721-26.174 14.567-28.377 26.284-1.412 15.206 3.907 27.018 17.212 32.564 22.127 9.224 36.537 14.735 34.658 23.958-3.485 17.105-33.843 9.03-49.544 2.792l-4.652 20.934c13.275 5.796 29.747 8.876 55.359 4.186 12.164-3.955 23.166-9.56 23.725-30.006.849-20.862-16.127-29.169-30.006-33.262-26.93-7.94-26.676-19.792-15.156-26.897 10.936-3.93 25.02.744 36.09 3.637zM360.02.606c28.413-.106 37.966 7.219 43.413 24.88 2.586 8.386.575 19.51 1.293 34.787.204 4.332-1.186 11.548.487 16.273 4.626 15.94 12.872 13.992 17.664 14.553.202 6.19.138 7.762-.19 19.867-10.472-.116-17.025 6.33-17.57 13.912l-.481 46.222c-.127 12.172-8.714 21.94-18.32 26.155-8.46 3.713-17.45 2.543-25.8 2.952l-.328-19.175c11.506.921 18.848-2.879 21.053-12.5l.794-45.066c.153-8.67 4.3-16.042 13.583-22.657-7.365-4.305-12.012-11.335-12.733-18.132l-1.316-50.987c-.196-7.606-10.309-12.238-21.382-11.513z" fill-rule="evenodd" filter="url(#b)" fill="url(#c)"/></svg>